<?xml version="1.0" encoding="UTF-8"?>
<!DOCTYPE svg PUBLIC "-//W3C//DTD SVG 1.1//EN" "http://www.w3.org/Graphics/SVG/1.1/DTD/svg11.dtd">
<!-- Creator: CorelDRAW -->
<svg xmlns="http://www.w3.org/2000/svg" xml:space="preserve" width="2550px" height="1800px" version="1.1"
  style="shape-rendering:geometricPrecision; text-rendering:geometricPrecision; image-rendering:optimizeQuality; fill-rule:evenodd; clip-rule:evenodd"
  viewBox="0 0 25500 18000" xmlns:xlink="http://www.w3.org/1999/xlink"
  xmlns:xodm="http://www.corel.com/coreldraw/odm/2003">
  <defs>
    <style type="text/css">
      <![CDATA[
      .fil0 {
        fill: black
      }

      .fil2 {
        fill: white
      }

      .fil1 {
        fill: url(#id0)
      }
      ]]>
    </style>
    <linearGradient id="id0" gradientUnits="userSpaceOnUse" x1="11061.2" y1="9743.3" x2="13558.4" y2="6019.6">
      <stop offset="0" style="stop-opacity:1; stop-color:#EF0D72" />
      <stop offset="1" style="stop-opacity:1; stop-color:#5742E3" />
    </linearGradient>
  </defs>
  <g id="Layer_x0020_1">
    <metadata id="CorelCorpID_0Corel-Layer" />
    <rect class="fil0" width="25500" height="18000" />
    <path id="_24WF" class="fil1"
      d="M12750 5480.9c662.2,0 1292.7,261.2 1760.9,729.4 468.2,468.2 729.4,1098.7 729.4,1760.9 0,249.3 -37.1,493.9 -108,727.2l-399.1 0c84.5,-230.5 128.7,-476 128.7,-727.2 0,-561.7 -221.3,-1096.2 -618.5,-1493.4 -397.2,-397.2 -931.7,-618.5 -1493.4,-618.5 -26.1,0 -52.2,0.4 -78.2,1.4l1452.6 2508.4 -189.3 329.4 -0.1 -0.1 -1884.9 0 188.1 -325.6 1506.9 0c1.2,0 2.2,-0.3 2.8,-1.3l0 -0.3 0.3 -0.3c0.6,-1.2 0.6,-1.9 0,-3.1l-4.7 -8.2 -32.7 -56.5 -32.6 -56.2 -32.7 -56.5 -32.3 -56.5 -32.7 -56.2 -32.6 -56.6 -32.4 -56.5 -32.6 -56.2 -32.7 -56.5 -32.6 -56.5 -32.4 -56.2 -32.6 -56.5 -32.7 -56.5 -32.3 -55.9 -32.7 -56.6 -32.6 -56.5 -32.7 -56.2 -32.3 -56.5 -32.7 -56.5 -32.6 -56.2 -32.7 -56.5 -32.3 -56.5 -32.7 -56.2 -32.3 -56.6 -32.7 -56.5 -609.2 -1046.3 -1.5 0.3 -199.4 -341.6c204.1,-53.4 415.7,-81 630.8,-81l0 0zm-408.8 1217.7l-1387 2384.6c-205.4,-331 -316.1,-714.7 -316.1,-1112 0,-561.7 221.4,-1096.2 618.6,-1493.4 280,-280 627.9,-472.5 1005.7,-561.7l-197.8 -339.4c-402.6,115.2 -773.1,331.2 -1075.5,633.6 -468.1,468.2 -729.4,1098.7 -729.4,1760.9 0,650.3 251.9,1269.8 704.3,1735.4l131.5 -224.7 2 3.4 1430.5 -2459.2c0.6,-1 1.6,-1.6 2.8,-1.9l0 0.3 0.7 -0.3c1.5,0.3 1.9,0.6 2.8,1.9l4.7 8.1 32.7 56.5 32.3 56.3 32.6 56.5 32.7 56.5 32.3 56.2 32.7 56.5 32.6 56.5 32.4 56.2 32.6 56.5 32.7 56.6 32.3 56.2 32.7 56.5 355.4 615.1 377.8 3.1 -941.4 -1629.9 -380.2 -1 0 0.1zm-558 2385.4l2762.2 0c-84.9,136.7 -186,264.5 -302,380.6 -397.2,397.2 -931.7,618.5 -1493.4,618.5 -561.7,0 -1096.1,-221.3 -1493.3,-618.5 -17,-17 -34,-34.3 -50.3,-51.9l-197.8 338.5c466,456.3 1088.3,710.3 1741.4,710.3 662.2,0 1292.7,-261.3 1760.9,-729.4 276.6,-276.7 481,-610.4 602.2,-973.4l0 0 -134.7 0 -268.1 0 -2736.8 0c-1.2,0 -2.2,-0.6 -3.1,-1.6l0 -0.3 -0.3 -0.3c-0.7,-1.3 -0.7,-1.9 0,-3.1l4.7 -8.2 32.6 -56.5 32.7 -56.2 32.6 -56.5 32.4 -56.6 32.6 -56.2 32.7 -56.5 32.6 -56.5 32.4 -56.2 41.1 -71 32.7 -56.5 32.3 -56.2 32.6 -56.5 347.3 -601.6 -187.7 -325.9 -939.8 1628.3 189.3 329.4 0 0z" />
    <path id="_24WT" class="fil2"
      d="M3740.8 12143.8l0 362.6 -187.6 0 0 -950.9 648.2 0c41.8,0 83.1,5.7 122.9,18.7 37.1,12 71.4,30.1 101.3,55.3 29.9,25.1 52.5,56.3 68.3,91.9 17.5,39.5 24.3,82.4 24.3,125.4 0,44.6 -6.4,89.8 -24.2,131 -15.8,36.4 -38.5,68.3 -69.2,93.6 -30.8,25.5 -66.3,43.2 -104.5,54.6 -41.8,12.6 -85.2,17.8 -128.8,17.8l-450.7 0zm2221.8 184.9l644.3 0 0 177.7 -831.9 0 0 -950.9 187.6 0 0 773.2zm2711.6 -40.4l-521.4 0 -110.4 218.1 -205.2 0 485.8 -950.9 180.9 0 488.8 950.9 -206.6 0 -111.9 -218.1zm2087.4 -193.6l0 411.7 -187.5 0 0 -411.7 -457.3 -539.2 238.6 0 5.8 6.1c57.1,59.9 111.9,121.9 164.5,185.8 47.3,57.6 95.2,114.8 143.6,171.5l311.8 -363.4 237.8 0 -457.3 539.2zm2296.9 -361.5l0 773.2 -187.6 0 0 -773.2 -406.4 0 0 -177.7 1000.4 0 0 177.7 -406.4 0zm2259 -203.2c73.7,0 146.5,10.5 216.8,32.8 66.6,21.1 128.5,52.8 182.7,96.9 53.5,43.5 95.4,97 126.2,158.6 34,68 47.4,142.7 47.4,218.3 0,73.6 -12.8,147 -46.8,212.8 -30.7,59.5 -72.6,110.2 -125.8,151 -54.1,41.5 -115.2,70.8 -180.6,89.6 -68.4,19.7 -138.9,29.1 -210,29.1 -72.5,0 -144.5,-8.8 -214.6,-27.6 -66.2,-17.7 -128.4,-45.8 -183.6,-86.7 -54.3,-40.2 -96.8,-91.2 -128.1,-151 -35.4,-67.4 -48.3,-143.1 -48.3,-218.6 0,-74.9 13.1,-148.9 45.9,-216.7 29.9,-61.7 71.1,-115.2 124.1,-158.7 53.4,-43.9 114.2,-75.7 179.8,-97 69.6,-22.5 141.8,-32.8 214.9,-32.8zm2010.4 613.8l0 362.6 -187.6 0 0 -950.9 648.2 0c41.7,0 83.1,5.7 122.8,18.7 37.1,12 71.5,30.1 101.4,55.3 29.9,25.1 52.4,56.3 68.3,91.9 17.5,39.5 24.3,82.4 24.3,125.4 0,44.6 -6.5,89.8 -24.2,131 -15.8,36.4 -38.6,68.3 -69.2,93.6 -30.8,25.5 -66.4,43.2 -104.5,54.6 -41.8,12.6 -85.3,17.8 -128.8,17.8l-450.7 0zm2034.2 -589.7l187.6 0 0 953.7 -187.6 0 0 -953.7zm2266.2 734.2l-521.4 0 -110.4 218.1 -205.2 0 485.8 -950.9 180.9 0 488.7 950.9 -206.6 0 -111.8 -218.1zm-17887.5 -322.1l443.6 0c20,0 40.1,-1.8 59.7,-6 15.9,-3.4 31.1,-9.3 44.5,-18.7 12.4,-8.9 21.7,-20.4 28.5,-34 8.4,-16.6 10.7,-36.6 10.7,-55 0,-19 -2.3,-40 -10.8,-57.3 -6.8,-14.2 -16.4,-26 -29.2,-35.2 -13.9,-10 -29.6,-16.4 -46.2,-20.2 -20.1,-4.7 -40.8,-6.6 -61.4,-6.6l-439.4 0 0 233zm4672.1 -184.5l-168 328.9 338.4 0 -170.4 -328.9zm6904.6 -78.3c-51.2,0 -101.9,6.5 -151.2,20.5 -45.1,12.9 -87.2,33 -124.4,61.9 -35.9,27.8 -63.9,62.5 -84.5,103.1 -22.9,45.3 -31.1,95.9 -31.1,146.3 0,50 8.1,101.4 32.9,145.5 21.7,38.8 50.9,70.7 87.9,95.3 39.1,25.8 82.5,42.9 128.1,53.2 49.9,11.2 101,16.5 152.2,16.5 49.5,0 98.7,-5.8 146.8,-17.9 44.6,-11.1 86.7,-29 124.6,-55.1 36.2,-25 64.8,-57 86.1,-95.5 23.9,-42.9 32.3,-92 32.3,-140.6 0,-50.8 -8.8,-101.4 -32.5,-146.8 -21.4,-41 -50.3,-76 -87.3,-103.9 -38.2,-28.9 -81.2,-49 -127.3,-61.9 -49.8,-14 -101,-20.6 -152.6,-20.6zm2010.4 262.8l443.6 0c20,0 40.1,-1.8 59.6,-6 16,-3.4 31.2,-9.3 44.5,-18.7 12.5,-8.9 21.8,-20.4 28.6,-34 8.3,-16.6 10.7,-36.6 10.7,-55 0,-19 -2.4,-40 -10.8,-57.3 -6.9,-14.2 -16.5,-26 -29.3,-35.2 -13.8,-10 -29.6,-16.4 -46.1,-20.2 -20.1,-4.7 -40.8,-6.6 -61.5,-6.6l-439.3 0 0 233zm4039.1 -184.5l-168 328.9 338.4 0 -170.4 -328.9z" />
  </g>
</svg>